<?xml version="1.0" standalone="no"?>
<!DOCTYPE svg PUBLIC "-//W3C//DTD SVG 20010904//EN"
 "http://www.w3.org/TR/2001/REC-SVG-20010904/DTD/svg10.dtd">
<svg version="1.0" xmlns="http://www.w3.org/2000/svg"
 width="700.000000pt" height="700.000000pt" viewBox="0 0 700.000000 700.000000"
 preserveAspectRatio="xMidYMid meet">
<metadata>
Created by potrace 1.11, written by Peter Selinger 2001-2013
</metadata>
<g transform="translate(0.000000,700.000000) scale(0.100000,-0.100000)"
fill="#000000" stroke="none">
<path d="M2373 6984 c-51 -19 -104 -67 -131 -120 -17 -34 -23 -58 -38 -154 -2
-8 -12 -64 -23 -125 -10 -60 -22 -126 -26 -145 -3 -19 -12 -71 -20 -115 -15
-81 -19 -108 -31 -180 -3 -22 -7 -42 -9 -45 -2 -3 -6 -26 -10 -50 -6 -41 -43
-254 -50 -290 -2 -8 -4 -22 -4 -31 -1 -15 -19 -19 -171 -43 -14 -3 -63 -11
-110 -20 -109 -20 -237 -43 -575 -101 -61 -11 -251 -45 -275 -50 -13 -3 -42
-7 -65 -11 -255 -37 -426 -115 -571 -259 -93 -94 -164 -205 -206 -325 -21 -59
-24 -70 -38 -140 -11 -55 -10 -239 1 -289 7 -34 12 -57 24 -126 8 -40 23 -132
30 -175 3 -19 8 -42 10 -50 2 -8 7 -33 10 -55 3 -23 7 -52 10 -65 10 -51 55
-308 105 -595 5 -27 11 -66 15 -85 3 -19 15 -87 26 -150 11 -63 24 -135 29
-160 10 -44 12 -56 27 -149 4 -25 8 -48 8 -51 1 -3 5 -25 9 -50 4 -25 13 -79
21 -120 8 -41 16 -91 19 -110 3 -19 14 -82 25 -140 11 -58 22 -121 25 -140 6
-38 16 -95 41 -235 21 -117 55 -315 60 -340 1 -11 10 -58 18 -105 9 -47 18
-98 21 -115 12 -74 36 -212 40 -233 3 -13 21 -117 41 -230 73 -424 94 -495
181 -628 45 -69 160 -187 224 -231 101 -69 240 -124 355 -142 61 -9 276 -8
293 3 5 3 22 7 38 10 70 12 321 56 344 60 38 7 212 38 235 41 11 2 151 26 310
55 160 28 306 53 325 56 19 3 51 9 70 14 19 4 58 12 85 16 28 4 52 8 55 9 3 0
27 4 53 9 27 4 59 10 70 12 12 3 45 9 72 14 28 5 64 11 80 14 17 3 69 12 117
20 48 9 97 18 110 20 13 3 41 8 63 11 22 3 47 7 55 10 8 2 32 6 52 9 21 3 77
13 125 21 49 9 151 27 228 40 77 14 151 27 165 30 23 5 40 8 115 20 78 13 263
45 285 50 14 3 41 8 60 11 19 3 96 17 170 30 74 14 146 26 160 28 45 6 214 37
220 40 3 2 30 7 60 10 112 13 172 45 219 118 17 26 31 51 31 56 0 10 23 23 52
28 9 2 48 16 85 31 157 61 329 208 411 349 75 131 95 198 147 494 14 80 47
271 75 425 27 154 51 294 54 310 3 17 8 46 11 65 3 19 17 96 30 170 13 74 36
200 50 280 14 80 27 155 29 166 2 12 7 39 10 60 4 22 15 86 26 144 10 58 21
119 24 135 7 47 35 205 46 260 5 28 12 66 15 85 6 41 48 279 75 430 22 122
127 715 171 969 32 184 35 265 13 388 -48 276 -249 527 -512 637 -66 28 -193
61 -277 72 -27 3 -57 7 -65 9 -13 3 -123 23 -215 40 -16 3 -46 8 -65 11 -19 2
-46 7 -60 10 -52 10 -69 13 -106 19 -22 4 -48 8 -59 10 -30 5 -196 34 -225 40
-14 3 -38 7 -55 10 -16 3 -41 7 -55 10 -34 6 -90 16 -120 20 -14 2 -115 20
-225 40 -110 20 -240 43 -290 51 -49 8 -110 18 -135 24 -25 5 -126 23 -225 40
-99 17 -191 33 -205 36 -14 2 -74 13 -135 23 -60 11 -123 22 -140 25 -16 3
-70 12 -120 21 -83 15 -375 66 -455 80 -105 18 -268 47 -290 51 -86 16 -185
34 -222 39 -24 4 -77 13 -118 21 -117 23 -190 25 -237 8z"/>
</g>
</svg>
